# xmcd CD database file
#
# Track frame offsets:
#	150
#	24820
#	45964
#	70556
#
# Disc length: 1221 seconds
#
# Revision: 2
# Processed by: cddbd v1.5.2PL0 Copyright (c) Steve Scherf et al.
# Submitted via: CDex 1.70beta2
#
DISCID=1e04c304
DTITLE=南條愛乃 - 一切は物語
DYEAR=2017
DGENRE=JPop
TTITLE0=一切は物語
TTITLE1=嵐のなかで君だけは
TTITLE2=一切は物語 (instrumental)
TTITLE3=嵐のなかで君だけは (instrumental)
EXTD=YEAR: 2017
EXTT0=
EXTT1=
EXTT2=
EXTT3=
PLAYORDER=
